<?xml version="1.0" encoding="UTF-8" standalone="no"?>
<svg
   xmlns:dc="http://purl.org/dc/elements/1.1/"
   xmlns:cc="http://creativecommons.org/ns#"
   xmlns:rdf="http://www.w3.org/1999/02/22-rdf-syntax-ns#"
   xmlns:svg="http://www.w3.org/2000/svg"
   xmlns="http://www.w3.org/2000/svg"
   id="svg846"
   version="1.1"
   viewBox="0 0 210 297"
   height="297mm"
   width="210mm">
  <defs
     id="defs840" />
  <metadata
     id="metadata843">
    <rdf:RDF>
      <cc:Work
         rdf:about="">
        <dc:format>image/svg+xml</dc:format>
        <dc:type
           rdf:resource="http://purl.org/dc/dcmitype/StillImage" />
        <dc:title></dc:title>
      </cc:Work>
    </rdf:RDF>
  </metadata>
  <g
     id="layer1">
    <path
       id="path1409"
       d="m 27.07162715906176,9.784721347548323 c 0,0 11.48194426950967,68.078373890546927 0.14265855522396,79.417659604832635 C 15.875,100.5416666666667 15.85367019758368,52.1607142857143 40.80009876901227,51.40476190476191 65.74652734044082,50.64880952380954 52.50669577256602,-34.75247972139322 46.45907672494698,27.23561551670204 40.41145767732793,89.22371075479729 49.810862964037,103.4014878328359 64.17395820213222,85.25863068997875 78.53705344022748,67.11577354712163 92.98214285714286,2.267857142857145 86.17857142857143,9.827380952380954 79.37500000000001,17.38690476190476 94.56964285714286,89.20238095238097 94.56964285714286,89.20238095238097 l 15.11904761904763,-24.19047619047619 10.5833333333334,23.43452380952378 c 0,0 13.7922098962341,-48.38095238095235 16.0600670390911,-69.54761904761899 2.2678571428573,-21.166666666666664 -32.9125982442079,-1.65456331712871 -9.4780744346841,13.46448430191893 23.4345238095238,15.11904761904763 38.8782231130069,2.30719171684465 38.8782231130069,2.30719171684465"
       style="fill:none;stroke:#000000;stroke-width:0.264583px;stroke-linecap:butt;stroke-linejoin:miter;stroke-opacity:1" />
  </g>
</svg>
