<?xml version="1.0" encoding="UTF-8" standalone="no"?>
<svg
   xmlns:dc="http://purl.org/dc/elements/1.1/"
   xmlns:cc="http://creativecommons.org/ns#"
   xmlns:rdf="http://www.w3.org/1999/02/22-rdf-syntax-ns#"
   xmlns:svg="http://www.w3.org/2000/svg"
   xmlns="http://www.w3.org/2000/svg"
   xmlns:sodipodi="http://sodipodi.sourceforge.net/DTD/sodipodi-0.dtd"
   xmlns:inkscape="http://www.inkscape.org/namespaces/inkscape"
   inkscape:version="1.0beta2 (2b71d25, 2019-12-03)"
   sodipodi:docname="racetrack.svg"
   width="210mm"
   height="297mm"
   viewBox="0 0 210 297"
   version="1.1"
   id="svg846">
  <sodipodi:namedview
     inkscape:current-layer="layer1"
     inkscape:window-maximized="1"
     inkscape:window-y="23"
     inkscape:window-x="0"
     inkscape:cy="353.444397906732"
     inkscape:cx="194.1463348537815"
     inkscape:zoom="1.749740576739502"
     showgrid="false"
     id="namedview1434"
     inkscape:window-height="729"
     inkscape:window-width="1280"
     inkscape:pageshadow="2"
     inkscape:pageopacity="0"
     guidetolerance="10"
     gridtolerance="10"
     objecttolerance="10"
     borderopacity="1"
     inkscape:document-rotation="0"
     bordercolor="#666666"
     pagecolor="#ffffff" />
  <defs
     id="defs840" />
  <metadata
     id="metadata843">
    <rdf:RDF>
      <cc:Work
         rdf:about="">
        <dc:format>image/svg+xml</dc:format>
        <dc:type
           rdf:resource="http://purl.org/dc/dcmitype/StillImage" />
        <dc:title />
      </cc:Work>
    </rdf:RDF>
  </metadata>
  <g
     id="layer1">
    <path
       style="fill:none;stroke:#000000;stroke-width:0.264583px;stroke-linecap:butt;stroke-linejoin:miter;stroke-opacity:1"
       d="M 139.4994859445411,102.0974498579612 H 49.02699324862497 c -3.722808668913,0 -11.07788483241568,0.4683420948056 -8.9330331126262,-6.7033319235085 C 42.15602137425869,88.49926787551582 69.5292868487495,81.64837553132885 66.94934852897907,77.54020592339369 64.36941020920858,73.43203631545856 62.42208866883529,71.57830812632009 65.8262928313257,70.06532849854656 69.23049699381606,68.55234887077301 71.9419598488007,57.58461088914474 71.11004250535629,51.06306243735694 69.38249111453455,37.52047892593427 41.71159571500817,21.97763437431111 50.58307421590532,15.62131317762153 59.45455271680245,9.264991980931942 81.14118792695796,33.3506524929359 90.95353594433908,47.38235668243132 c 5.4689354361616,7.82060360432979 0.24615517814829,26.3205479217531 8.90567159199152,27.20898515866106 8.65951641384319,0.88843723690795 10.2162706872918,-3.90930532077449 6.6287625717259,-8.1961155941035 -3.5875081155659,-4.28681027332902 9.1338853059501,-24.063999880812 45.9576683998197,-10.9330584216056 36.8237830938696,13.1309414592064 16.9130001079066,15.69921495011004 16.659712339456,28.71056904794452 -0.2532877684505,13.01135409783453 11.5656653954858,18.1581603870562 -29.6058649027911,17.92471298463339 z"
       id="path840"
       inkscape:connector-curvature="0"
       sodipodi:nodetypes="csszzazazzzzc" />
  </g>
</svg>
